# xmcd CD database file
#
# Track frame offsets:
#	150
#	7690
#	26497
#	27622
#	47560
#	66515
#	87547
#	91827
#	115502
#	142940
#	164047
#	192327
#	194970
#	210372
#	231437
#	236505
#	256425
#	277882
#
# Disc length: 4119 seconds
#
# Revision: 9
# Processed by: cddbd v1.5.1PL0 Copyright (c) Steve Scherf et al.
# Submitted via: CDex 1.51
#
DISCID=fb101512
DTITLE=SOUL'd OUT - SOUL'd OUT
DYEAR=2003
DGENRE=Hip-Hop
TTITLE0=Thunder Storm -instrumental-
TTITLE1=ウェカピポ
TTITLE2=Inter Lude：Channel
TTITLE3=SOUL'dOUT is Comin'
TTITLE4=Diggy Diggy Diggy
TTITLE5=円卓の騎士
TTITLE6=ア アラララァ ア アァ!
TTITLE7=Dream Drive
TTITLE8=Flyte Tyme (Extended)
TTITLE9=輪舞曲
TTITLE10=GAME
TTITLE11=H.B.B Noizzz!
TTITLE12=See You @ Tha HOT SPOT
TTITLE13=Master's Groove -instrumental-
TTITLE14=InterLude：Break it down
TTITLE15=Shut Out
TTITLE16=True to myself
TTITLE17=戦士達 天使達 〜Livin' for Today〜
EXTD=YEAR: 2003
EXTT0=
EXTT1=
EXTT2=
EXTT3=
EXTT4=
EXTT5=
EXTT6=
EXTT7=
EXTT8=
EXTT9=
EXTT10=
EXTT11=
EXTT12=
EXTT13=
EXTT14=
EXTT15=
EXTT16=
EXTT17=
PLAYORDER=
